<svg xmlns="http://www.w3.org/2000/svg" xmlns:xlink="http://www.w3.org/1999/xlink" width="1059" height="803" viewBox="0 0 1059 803">
  <defs>
    <linearGradient id="linear-gradient" x1="0.5" x2="0.5" y2="1" gradientUnits="objectBoundingBox">
      <stop offset="0" stop-color="#ffc400"/>
      <stop offset="1" stop-color="#526e21"/>
    </linearGradient>
    <linearGradient id="linear-gradient-2" x1="0.5" x2="0.5" y2="1" gradientUnits="objectBoundingBox">
      <stop offset="0" stop-color="#f10c6f"/>
      <stop offset="1" stop-color="#710328"/>
    </linearGradient>
    <linearGradient id="linear-gradient-3" x1="0.5" x2="0.5" y2="1" gradientUnits="objectBoundingBox">
      <stop offset="0" stop-color="#c10deb"/>
      <stop offset="1" stop-color="#310b74"/>
    </linearGradient>
    <linearGradient id="linear-gradient-4" x1="0.5" x2="0.5" y2="1" gradientUnits="objectBoundingBox">
      <stop offset="0" stop-color="red"/>
      <stop offset="1" stop-color="maroon"/>
    </linearGradient>
  </defs>
  <g id="Group_4" data-name="Group 4" transform="translate(-125 -1123)">
    <circle id="Ellipse_8" data-name="Ellipse 8" cx="32.5" cy="32.5" r="32.5" transform="translate(1022 1472)" fill="url(#linear-gradient)"/>
    <g id="Rectangle_43" data-name="Rectangle 43" transform="translate(380 1602)" fill="none" stroke="#707070" stroke-width="8" opacity="0.3">
      <rect width="65" height="65" stroke="none"/>
      <rect x="4" y="4" width="57" height="57" fill="none"/>
    </g>
    <g id="Polygon_1" data-name="Polygon 1" transform="translate(552 1606)" fill="none" opacity="0.3">
      <path d="M32.5,0,65,56H0Z" stroke="none"/>
      <path d="M 32.5 15.93788528442383 L 13.89252090454102 48 L 51.10747528076172 48 L 32.5 15.93788528442383 M 32.5 0 L 65 56 L 0 56 L 32.5 0 Z" stroke="none" fill="#707070"/>
    </g>
    <g id="Rectangle_44" data-name="Rectangle 44" transform="translate(781 1123)" fill="none" stroke="#707070" stroke-width="8" opacity="0.3">
      <rect width="65" height="65" stroke="none"/>
      <rect x="4" y="4" width="57" height="57" fill="none"/>
    </g>
    <g id="Ellipse_6" data-name="Ellipse 6" transform="translate(624 1258)" fill="none" stroke="#707070" stroke-width="8" opacity="0.3">
      <circle cx="32.5" cy="32.5" r="32.5" stroke="none"/>
      <circle cx="32.5" cy="32.5" r="28.5" fill="none"/>
    </g>
    <g id="Polygon_2" data-name="Polygon 2" transform="translate(861 1756)" fill="none" opacity="0.3">
      <path d="M32.5,0,65,56H0Z" stroke="none"/>
      <path d="M 32.5 15.93788528442383 L 13.89252090454102 48 L 51.10747528076172 48 L 32.5 15.93788528442383 M 32.5 0 L 65 56 L 0 56 L 32.5 0 Z" stroke="none" fill="#707070"/>
    </g>
    <g id="Ellipse_7" data-name="Ellipse 7" transform="translate(285 1155)" fill="none" stroke="#707070" stroke-width="8" opacity="0.3">
      <circle cx="32.5" cy="32.5" r="32.5" stroke="none"/>
      <circle cx="32.5" cy="32.5" r="28.5" fill="none"/>
    </g>
    <g id="Polygon_3" data-name="Polygon 3" transform="translate(125 1700)" fill="none" opacity="0.3">
      <path d="M32.5,0,65,56H0Z" stroke="none"/>
      <path d="M 32.5 15.93788528442383 L 13.89252090454102 48 L 51.10747528076172 48 L 32.5 15.93788528442383 M 32.5 0 L 65 56 L 0 56 L 32.5 0 Z" stroke="none" fill="#707070"/>
    </g>
    <g id="Rectangle_45" data-name="Rectangle 45" transform="translate(350 1861)" fill="none" stroke="#707070" stroke-width="8" opacity="0.3">
      <rect width="65" height="65" stroke="none"/>
      <rect x="4" y="4" width="57" height="57" fill="none"/>
    </g>
    <g id="Polygon_4" data-name="Polygon 4" transform="translate(870 1426)" fill="none" opacity="0.3">
      <path d="M32.5,0,65,56H0Z" stroke="none"/>
      <path d="M 32.5 15.93788528442383 L 13.89252090454102 48 L 51.10747528076172 48 L 32.5 15.93788528442383 M 32.5 0 L 65 56 L 0 56 L 32.5 0 Z" stroke="none" fill="#707070"/>
    </g>
    <g id="Ellipse_9" data-name="Ellipse 9" transform="translate(640 1861)" fill="none" stroke="#707070" stroke-width="8" opacity="0.3">
      <circle cx="32.5" cy="32.5" r="32.5" stroke="none"/>
      <circle cx="32.5" cy="32.5" r="28.5" fill="none"/>
    </g>
    <g id="Ellipse_10" data-name="Ellipse 10" transform="translate(786 1494)" fill="none" stroke="#707070" stroke-width="8" opacity="0.3">
      <circle cx="32.5" cy="32.5" r="32.5" stroke="none"/>
      <circle cx="32.5" cy="32.5" r="28.5" fill="none"/>
    </g>
    <g id="Rectangle_46" data-name="Rectangle 46" transform="translate(1054 1233)" fill="none" stroke="#707070" stroke-width="8" opacity="0.3">
      <rect width="65" height="65" stroke="none"/>
      <rect x="4" y="4" width="57" height="57" fill="none"/>
    </g>
    <g id="Rectangle_47" data-name="Rectangle 47" transform="translate(903 1630)" fill="none" stroke="#707070" stroke-width="8" opacity="0.3">
      <rect width="65" height="65" stroke="none"/>
      <rect x="4" y="4" width="57" height="57" fill="none"/>
    </g>
    <g id="Rectangle_48" data-name="Rectangle 48" transform="translate(1119 1724)" fill="none" stroke="#707070" stroke-width="8" opacity="0.3">
      <rect width="65" height="65" stroke="none"/>
      <rect x="4" y="4" width="57" height="57" fill="none"/>
    </g>
    <path id="Polygon_5" data-name="Polygon 5" d="M32.5,0,65,56H0Z" transform="translate(487 1155)" fill="url(#linear-gradient-2)"/>
    <rect id="Rectangle_49" data-name="Rectangle 49" width="65" height="65" transform="translate(528 1417)" fill="url(#linear-gradient-3)"/>
    <path id="Union_1" data-name="Union 1" d="M28.048,31.165,3.117,56.1,0,52.979,24.932,28.048,0,3.117,3.117,0,28.048,24.931,52.979,0,56.1,3.117,31.165,28.048,56.1,52.979,52.979,56.1Z" transform="translate(704.884 1732.952)" fill="url(#linear-gradient-4)"/>
    <g id="Polygon_20" data-name="Polygon 20" transform="translate(380 1298)" fill="none" opacity="0.3">
      <path d="M32.5,0,65,56H0Z" stroke="none"/>
      <path d="M 32.5 15.93788528442383 L 13.89252090454102 48 L 51.10747528076172 48 L 32.5 15.93788528442383 M 32.5 0 L 65 56 L 0 56 L 32.5 0 Z" stroke="none" fill="#707070"/>
    </g>
    <g id="Ellipse_42" data-name="Ellipse 42" transform="translate(243 1417)" fill="none" stroke="#707070" stroke-width="8" opacity="0.3">
      <circle cx="32.5" cy="32.5" r="32.5" stroke="none"/>
      <circle cx="32.5" cy="32.5" r="28.5" fill="none"/>
    </g>
  </g>
</svg>
